v  1.000000 -1.000000 -1.000000
v  1.000000 -1.000000  1.000000
v -1.000000 -1.000000  1.000000
v -1.000000 -1.000000 -1.000000
v  1.000000  1.000000 -1.000000
v  1.000000  1.000000  1.000000
v -1.000000  1.000000  1.000000
v -1.000000  1.000000 -1.000000

vt 0.75 0.75
vt 0.75 0.50
vt 1.00 0.50
vt 1.00 0.75
vt 0.25 0.50
vt 0.25 0.75
vt 0.00 0.75
vt 0.00 0.50
vt 0.50 0.50
vt 0.50 0.75
vt 0.75 1.00
vt 0.50 1.00
vt 0.50 0.25
vt 0.75 0.25

vn  0.000000  0.000000 -1.000000
vn -1.000000  0.000000  0.000000
vn  0.000000  0.000000  1.000000
vn  1.000000  0.000000  0.000000
vn  0.000000  1.000000  0.000000
vn  0.000000 -1.000000  0.000000

f 5/1/1  1/2/1  4/3/1
f 5/1/1  4/3/1  8/4/1
f 3/5/2  7/6/2  8/7/2
f 3/5/2  8/7/2  4/8/2
f 2/9/3  6/10/3 3/5/3
f 6/10/3 7/6/3  3/5/3
f 1/2/4  5/1/4  2/9/4
f 5/1/4  6/10/4 2/9/4
f 5/1/5  8/11/5 6/10/5
f 8/11/5 7/12/5 6/10/5
f 1/2/6  2/9/6  3/13/6
f 1/2/6  3/13/6 4/14/6
